<?xml version="1.0" encoding="utf-8"?>
<!-- Generator: Adobe Illustrator 23.0.1, SVG Export Plug-In . SVG Version: 6.00 Build 0)  -->
<svg version="1.1" xmlns="http://www.w3.org/2000/svg" xmlns:xlink="http://www.w3.org/1999/xlink" x="0px" y="0px"
	 viewBox="0 0 340.16 340.16" style="enable-background:new 0 0 340.16 340.16;" xml:space="preserve">
<style type="text/css">
	.st0{opacity:0.5;fill:#0077B1;}
	.st1{fill:#0077B1;}
	.st2{opacity:0.8;fill:#0077B1;}
	.st3{opacity:0.7;fill:#0077B1;}
</style>
<g id="Ebene_1">
</g>
<g id="Ebene_2">
	<polygon class="st0" points="132.28,207.87 132.27,207.88 147.39,238.12 170.08,226.77 	"/>
	<polygon class="st0" points="170.08,226.77 192.74,238.1 207.86,207.88 	"/>
	<path class="st1" d="M113.8,114.21c-0.27-0.54-0.63-1.04-1.06-1.47L62.9,62.9c-1.14-1.14-3,0.2-2.28,1.64l71.65,143.32l18.91-18.89
		L113.8,114.21z"/>
	<path class="st1" d="M226.35,114.21c0.27-0.54,0.63-1.04,1.06-1.47l49.84-49.84c1.14-1.14,3,0.2,2.28,1.64l-71.65,143.32
		l-18.91-18.89L226.35,114.21z"/>
	<path class="st2" d="M173.09,173.09c-1.66-1.66-4.36-1.66-6.03,0l-34.78,34.78l37.8,18.9l37.79-18.91L173.09,173.09z"/>
	<path class="st3" d="M271.48,170.08h-44.72l-18.89,37.8l64.87-32.44C275.42,174.1,274.47,170.08,271.48,170.08z"/>
	<path class="st3" d="M68.66,170.08h44.72l18.89,37.8L67.4,175.44C64.73,174.1,65.68,170.08,68.66,170.08z"/>
	<path class="st3" d="M192.74,238.1l-22.66-11.33l-22.69,11.34l18.87,37.75c1.57,3.13,6.04,3.13,7.6,0L192.74,238.1z"/>
</g>
</svg>
